<?xml version="1.0" encoding="UTF-8" ?>
<!DOCTYPE svg PUBLIC "-//W3C//DTD SVG 1.1//EN" "http://www.w3.org/Graphics/SVG/1.1/DTD/svg11.dtd">
<svg width="200pt" height="200pt" viewBox="0 0 200 200" version="1.1" xmlns="http://www.w3.org/2000/svg">
<g id="#d61f00ff">
<path fill="currentColor" opacity="1.00" d=" M 36.86 37.58 C 55.44 27.29 77.03 24.04 98.02 23.77 C 115.63 23.67 133.51 25.52 150.13 31.64 C 159.08 35.00 168.11 39.29 174.58 46.55 C 179.26 51.76 181.09 59.64 178.09 66.14 C 175.30 72.76 169.23 77.00 163.34 80.66 C 154.59 73.65 143.22 69.94 132.01 70.90 C 117.18 71.94 103.24 81.11 96.49 94.36 C 79.50 94.26 62.31 91.73 46.50 85.32 C 38.32 81.88 29.95 77.66 24.42 70.49 C 19.82 64.79 19.15 56.30 22.94 50.01 C 26.21 44.59 31.40 40.62 36.86 37.58 M 64.29 37.65 C 61.39 36.44 58.27 34.72 55.04 35.67 C 50.54 37.07 46.38 40.09 44.02 44.22 C 42.07 48.34 45.86 52.21 47.88 55.52 C 47.00 57.11 46.10 58.69 45.21 60.28 C 49.39 61.38 53.72 62.84 58.08 62.01 C 62.14 61.06 65.46 57.77 66.81 53.88 C 68.30 49.65 64.02 45.71 60.09 45.34 C 56.94 46.87 54.42 49.37 51.71 51.54 C 50.04 49.34 47.91 47.00 48.12 44.03 C 48.07 41.38 50.58 39.33 53.09 39.19 C 57.07 38.96 60.67 40.95 64.13 42.64 C 65.42 39.73 66.70 36.78 67.27 33.62 C 66.18 34.89 65.28 36.30 64.29 37.65 M 139.20 36.11 C 136.05 43.18 132.75 50.17 129.22 57.05 C 128.25 59.08 126.69 60.71 125.11 62.28 C 128.06 62.51 131.02 62.34 133.97 62.13 C 128.89 60.58 132.53 55.77 133.69 52.74 C 137.44 52.75 141.18 52.75 144.93 52.75 C 145.91 55.22 146.91 57.69 147.86 60.17 C 147.14 60.67 145.69 61.66 144.96 62.16 C 148.91 62.50 152.89 62.47 156.85 62.16 C 153.21 59.42 151.86 54.96 149.81 51.11 C 147.08 45.83 144.58 40.43 142.22 34.98 C 141.24 35.37 139.64 34.95 139.20 36.11 M 82.47 36.72 C 79.06 37.84 76.28 40.29 73.83 42.83 C 71.81 44.90 70.50 47.94 71.38 50.84 C 72.86 56.19 77.27 61.09 82.91 61.98 C 90.02 62.47 95.77 56.27 97.59 49.87 C 98.92 45.69 97.83 40.59 94.16 37.94 C 90.92 35.24 86.27 35.68 82.47 36.72 M 100.00 36.03 C 101.37 37.05 104.02 37.06 104.34 39.05 C 105.42 46.19 104.66 53.44 104.24 60.61 C 102.89 61.09 101.55 61.60 100.22 62.12 C 102.85 62.40 105.51 62.51 108.15 62.37 C 110.25 64.81 110.03 69.72 106.16 70.07 C 97.84 70.61 91.08 63.95 82.92 63.55 C 80.31 64.85 78.55 67.37 77.52 70.03 C 79.59 68.78 81.20 65.75 83.99 66.69 C 89.89 68.22 95.11 71.63 101.01 73.14 C 103.59 73.66 106.88 74.03 108.80 71.80 C 111.50 69.35 110.64 65.39 109.58 62.36 C 113.90 62.59 118.24 62.49 122.56 62.50 C 122.85 59.50 123.26 56.52 123.49 53.51 C 122.06 55.43 121.43 57.96 119.49 59.47 C 116.89 60.81 113.77 60.70 110.96 60.17 C 109.91 57.95 110.28 55.37 110.12 52.99 C 110.23 48.40 109.82 43.77 110.41 39.20 C 110.71 37.25 113.11 37.00 114.47 36.01 C 109.65 35.66 104.82 35.67 100.00 36.03 Z" />
<path fill="currentColor" opacity="1.00" d=" M 80.27 40.11 C 85.73 38.06 93.30 41.84 93.47 48.07 C 93.56 51.37 92.92 55.07 90.49 57.48 C 87.72 59.18 84.15 58.23 81.83 56.19 C 78.53 53.46 75.33 49.47 76.00 44.91 C 76.23 42.58 78.25 40.96 80.27 40.11 Z" />
<path fill="currentColor" opacity="1.00" d=" M 134.61 51.03 C 135.98 47.63 137.64 44.36 139.39 41.14 C 141.01 44.39 142.53 47.69 143.86 51.06 C 140.78 51.14 137.69 51.13 134.61 51.03 Z" />
<path fill="currentColor" opacity="1.00" d=" M 50.03 55.46 C 52.52 52.69 55.51 50.31 59.02 48.98 C 60.78 50.90 63.51 52.84 62.97 55.83 C 61.79 59.69 57.00 58.96 54.03 57.95 C 52.67 57.26 50.18 57.39 50.03 55.46 Z" />
<path fill="currentColor" opacity="1.00" d=" M 122.15 81.17 C 128.72 78.43 136.15 78.76 143.10 79.42 C 147.76 79.80 152.87 82.84 153.18 87.94 C 153.33 93.94 153.28 99.96 153.21 105.96 C 153.21 110.29 149.34 114.14 145.03 114.19 C 138.78 114.44 132.53 114.06 126.29 114.31 C 121.20 114.58 116.75 118.99 116.31 124.05 C 116.13 127.08 116.26 130.11 116.26 133.15 C 111.59 133.19 105.57 133.85 102.88 129.04 C 99.27 122.31 99.01 114.03 100.84 106.71 C 101.86 101.96 105.97 97.80 110.99 97.69 C 119.27 97.53 127.55 97.64 135.84 97.66 C 135.85 97.09 135.87 95.93 135.88 95.36 C 130.04 95.39 124.21 95.36 118.37 95.38 C 118.69 90.61 116.84 83.84 122.15 81.17 M 123.54 85.39 C 122.22 86.81 122.49 89.67 124.36 90.52 C 126.55 92.12 130.05 89.54 129.19 86.96 C 128.88 84.25 125.28 83.39 123.54 85.39 Z" />
<path fill="currentColor" opacity="1.00" d=" M 179.61 79.89 C 179.07 88.64 180.26 97.48 178.79 106.16 C 177.52 101.24 175.74 96.47 173.25 92.04 C 176.54 88.72 178.84 84.52 179.61 79.89 Z" />
<path fill="currentColor" opacity="1.00" d=" M 20.35 80.82 C 22.54 90.49 31.31 96.27 39.59 100.44 C 55.76 108.22 73.70 111.36 91.45 112.82 C 91.15 120.56 92.94 128.26 96.37 135.19 C 79.64 134.25 62.83 131.77 47.10 125.82 C 40.51 123.17 34.04 119.98 28.48 115.51 C 24.29 112.15 20.88 107.34 20.58 101.83 C 20.31 94.83 20.71 87.82 20.35 80.82 Z" />
<path fill="currentColor" opacity="1.00" d=" M 155.50 97.62 C 160.02 97.69 166.02 96.56 168.67 101.33 C 172.98 109.55 173.28 119.90 169.19 128.29 C 167.99 131.11 165.21 133.19 162.08 133.07 C 153.35 133.22 144.60 133.07 135.86 133.12 C 135.86 133.66 135.86 134.72 135.86 135.25 C 141.67 135.26 147.48 135.20 153.28 135.31 C 153.07 139.65 154.38 145.29 150.15 148.18 C 143.08 152.82 133.66 153.16 125.81 150.39 C 122.12 149.20 118.23 146.20 118.39 141.94 C 118.36 136.28 118.30 130.62 118.43 124.96 C 118.50 120.84 121.83 116.90 126.03 116.59 C 132.47 116.24 138.92 116.77 145.35 116.39 C 150.71 116.13 155.12 111.29 155.44 106.04 C 155.60 103.24 155.49 100.43 155.50 97.62 M 144.18 140.11 C 142.13 140.97 141.75 144.11 143.47 145.52 C 145.11 147.23 148.47 146.26 148.82 143.90 C 149.69 141.33 146.54 138.66 144.18 140.11 Z" />
<path fill="currentColor" opacity="1.00" d=" M 172.85 137.94 C 176.14 132.87 177.85 127.02 179.56 121.28 C 179.30 128.88 179.84 136.51 179.27 144.10 C 177.86 153.33 169.27 158.76 161.73 162.86 C 145.45 171.12 127.13 174.35 109.09 175.84 C 98.40 176.84 87.66 175.76 77.07 174.30 C 63.71 172.30 50.32 169.08 38.28 162.80 C 30.74 158.80 22.20 153.36 20.74 144.22 C 20.12 136.70 20.77 129.11 20.40 121.57 C 22.43 131.94 32.16 137.79 40.91 142.08 C 59.70 150.55 80.51 153.73 101.00 154.13 C 106.62 154.57 112.69 151.92 117.85 155.05 C 137.09 164.08 162.09 156.23 172.85 137.94 Z" />
</g>
</svg>
