<?xml version="1.0" encoding="UTF-8" ?>
<!DOCTYPE svg PUBLIC "-//W3C//DTD SVG 1.1//EN" "http://www.w3.org/Graphics/SVG/1.1/DTD/svg11.dtd">
<svg width="600pt" height="600pt" viewBox="0 0 600 600" version="1.1" xmlns="http://www.w3.org/2000/svg">
<g id="#ff3b2fff">
<path fill="#ff3b2f" opacity="1.00" d=" M 0.00 0.00 L 600.00 0.00 L 600.00 600.00 L 0.00 600.00 L 0.00 0.00 M 52.13 52.06 C 51.61 65.36 52.04 78.69 51.86 92.01 C 51.90 145.67 51.85 199.34 51.87 253.00 C 52.11 257.32 52.15 261.65 51.88 265.98 C 51.84 342.97 51.89 419.97 51.86 496.96 C 52.06 513.92 51.45 530.90 52.18 547.84 C 217.39 547.86 382.60 547.93 547.81 547.80 C 547.95 492.20 547.82 436.59 547.87 380.98 C 547.80 271.30 548.01 161.61 547.76 51.93 C 441.52 51.81 335.27 51.91 229.03 51.87 C 170.07 52.04 111.09 51.61 52.13 52.06 Z" />
<path fill="#ff3b2f" opacity="1.00" d=" M 442.46 167.38 C 465.87 167.28 489.27 167.43 512.68 167.31 C 513.62 171.83 513.18 176.46 513.24 181.04 C 513.26 248.37 513.22 315.70 513.26 383.03 C 513.34 384.54 512.95 386.01 512.51 387.44 C 489.22 387.23 465.93 387.46 442.64 387.32 C 442.13 369.90 442.56 352.45 442.42 335.02 C 442.45 279.14 442.37 223.26 442.46 167.38 Z" />
</g>
<g id="#0a0a0aff">
<path fill="#0a0a0a" opacity="1.00" d=" M 52.13 52.06 C 111.09 51.61 170.07 52.04 229.03 51.87 C 335.27 51.91 441.52 51.81 547.76 51.93 C 548.01 161.61 547.80 271.30 547.87 380.98 C 547.82 436.59 547.95 492.20 547.81 547.80 C 382.60 547.93 217.39 547.86 52.18 547.84 C 51.45 530.90 52.06 513.92 51.86 496.96 C 51.89 419.97 51.84 342.97 51.88 265.98 C 52.15 261.65 52.11 257.32 51.87 253.00 C 51.85 199.34 51.90 145.67 51.86 92.01 C 52.04 78.69 51.61 65.36 52.13 52.06 M 165.90 164.88 C 147.36 166.98 128.87 172.71 113.65 183.74 C 100.44 193.03 90.40 206.41 84.27 221.28 C 76.59 239.79 74.27 260.08 74.53 279.99 C 74.76 298.13 77.28 316.51 84.29 333.35 C 91.69 351.79 105.67 367.47 123.25 376.77 C 139.65 385.85 158.48 389.36 177.00 390.59 C 194.76 391.41 212.90 391.12 230.08 386.06 C 250.68 380.81 270.04 368.51 281.21 350.13 C 291.09 334.72 294.28 316.06 294.48 298.03 C 272.74 298.01 250.99 297.92 229.25 298.07 C 229.40 311.44 224.18 326.11 211.79 332.70 C 202.23 338.39 190.68 338.78 179.90 337.73 C 169.54 336.73 159.65 330.62 154.77 321.31 C 146.70 308.45 146.65 292.69 146.76 278.01 C 146.63 262.72 146.41 246.25 154.80 232.81 C 159.76 223.53 169.89 218.13 180.07 216.83 C 191.59 215.41 204.22 216.87 213.63 224.19 C 223.31 232.30 227.05 245.46 226.95 257.71 C 249.47 257.74 272.00 257.84 294.51 257.66 C 294.30 242.55 292.12 227.16 285.47 213.45 C 279.22 199.97 268.84 188.51 256.17 180.76 C 248.09 175.70 239.39 171.44 230.14 169.00 C 209.33 163.03 187.31 162.59 165.90 164.88 M 442.46 167.38 C 442.37 223.26 442.45 279.14 442.42 335.02 C 442.56 352.45 442.13 369.90 442.64 387.32 C 465.93 387.46 489.22 387.23 512.51 387.44 C 512.95 386.01 513.34 384.54 513.26 383.03 C 513.22 315.70 513.26 248.37 513.24 181.04 C 513.18 176.46 513.62 171.83 512.68 167.31 C 489.27 167.43 465.87 167.28 442.46 167.38 M 328.47 323.75 C 328.54 344.91 328.52 366.07 328.48 387.23 C 351.09 387.35 373.71 387.23 396.32 387.29 C 396.31 366.10 396.31 344.91 396.32 323.72 C 373.70 323.75 351.09 323.70 328.47 323.75 Z" />
</g>
<g id="#ffffffff">
<path fill="#ffffff" opacity="1.00" d=" M 165.90 164.88 C 187.31 162.59 209.33 163.03 230.14 169.00 C 239.39 171.44 248.09 175.70 256.17 180.76 C 268.84 188.51 279.22 199.97 285.47 213.45 C 292.12 227.16 294.30 242.55 294.51 257.66 C 272.00 257.84 249.47 257.74 226.95 257.71 C 227.05 245.46 223.31 232.30 213.63 224.19 C 204.22 216.87 191.59 215.41 180.07 216.83 C 169.89 218.13 159.76 223.53 154.80 232.81 C 146.41 246.25 146.63 262.72 146.76 278.01 C 146.65 292.69 146.70 308.45 154.77 321.31 C 159.65 330.62 169.54 336.73 179.90 337.73 C 190.68 338.78 202.23 338.39 211.79 332.70 C 224.18 326.11 229.40 311.44 229.25 298.07 C 250.99 297.92 272.74 298.01 294.48 298.03 C 294.28 316.06 291.09 334.72 281.21 350.13 C 270.04 368.51 250.68 380.81 230.08 386.06 C 212.90 391.12 194.76 391.41 177.00 390.59 C 158.48 389.36 139.65 385.85 123.25 376.77 C 105.67 367.47 91.69 351.79 84.29 333.35 C 77.28 316.51 74.76 298.13 74.53 279.99 C 74.27 260.08 76.59 239.79 84.27 221.28 C 90.40 206.41 100.44 193.03 113.65 183.74 C 128.87 172.71 147.36 166.98 165.90 164.88 Z" />
</g>
<g id="#f6d400ff">
<path fill="#f6d400" opacity="1.00" d=" M 328.47 323.75 C 351.09 323.70 373.70 323.75 396.32 323.72 C 396.31 344.91 396.31 366.10 396.32 387.29 C 373.71 387.23 351.09 387.35 328.48 387.23 C 328.52 366.07 328.54 344.91 328.47 323.75 Z" />
</g>
</svg>
